<?xml version="1.0" standalone="no"?>
<!DOCTYPE svg PUBLIC "-//W3C//DTD SVG 20010904//EN"
 "http://www.w3.org/TR/2001/REC-SVG-20010904/DTD/svg10.dtd">
<svg version="1.0" xmlns="http://www.w3.org/2000/svg"
 width="502.000000pt" height="502.000000pt" viewBox="0 0 502.000000 502.000000"
 preserveAspectRatio="xMidYMid meet">
<metadata>
Created by potrace 1.14, written by Peter Selinger 2001-2017
</metadata>
<g transform="translate(0.000000,502.000000) scale(0.100000,-0.100000)"
fill="#000000" stroke="none">
<path d="M2350 4849 c-87 -7 -177 -18 -211 -24 -13 -3 -40 -8 -59 -11 -98 -17
-301 -72 -365 -99 -16 -7 -55 -23 -85 -35 -193 -78 -423 -216 -595 -354 -61
-49 -262 -250 -329 -329 -39 -46 -46 -60 -37 -71 8 -9 8 -16 2 -20 -5 -4 -11
2 -13 11 -3 13 -17 0 -51 -47 -26 -36 -50 -69 -55 -75 -4 -5 -26 -41 -48 -80
-133 -226 -191 -366 -261 -625 -35 -132 -41 -157 -48 -220 -4 -30 -8 -57 -10
-60 -7 -12 -19 -209 -19 -315 1 -104 10 -252 19 -285 2 -8 7 -40 10 -70 11
-87 71 -314 117 -440 37 -101 107 -249 178 -375 29 -52 158 -240 185 -269 11
-12 38 -44 59 -72 77 -96 243 -251 366 -342 69 -50 143 -105 165 -121 22 -16
51 -35 65 -40 14 -6 41 -21 60 -33 52 -31 202 -105 252 -124 145 -54 391 -121
503 -138 22 -3 49 -7 60 -10 94 -20 401 -23 530 -6 44 6 96 13 115 16 19 2 42
7 50 9 8 2 29 7 45 10 235 41 513 143 740 272 91 52 233 151 285 200 19 18 38
33 43 33 13 0 230 222 293 300 214 264 388 600 460 889 19 78 32 147 28 153
-3 4 0 8 6 8 6 0 9 3 6 8 -2 4 0 28 4 54 43 230 45 559 5 783 -2 11 -4 20 -5
20 -1 0 -3 9 -5 20 -2 11 -8 43 -14 70 -6 28 -14 61 -17 75 -2 14 -8 34 -11
45 -4 11 -8 25 -9 30 -5 25 -74 217 -99 275 -44 106 -111 227 -202 364 -94
142 -90 136 -183 245 -205 242 -455 430 -763 576 -136 64 -362 143 -461 161
-16 3 -32 7 -36 9 -14 8 -242 45 -322 51 -116 9 -250 10 -338 3z m90 -373 l0
-136 -32 -1 c-37 -1 -58 -3 -141 -13 -32 -4 -64 -9 -70 -11 -7 -3 -23 -6 -37
-9 -76 -13 -171 -42 -320 -98 -66 -24 -244 -120 -325 -173 -106 -71 -205 -151
-289 -233 -74 -73 -221 -250 -238 -288 -6 -13 -15 -24 -20 -24 -4 0 -8 -7 -8
-15 0 -8 -3 -15 -7 -15 -5 0 -13 -10 -19 -23 -6 -12 -31 -60 -56 -107 -50 -94
-131 -312 -144 -388 -3 -15 -7 -35 -10 -44 -3 -10 -7 -29 -10 -43 -2 -14 -6
-37 -9 -52 -5 -32 -17 -131 -20 -177 -2 -17 -3 -34 -4 -38 0 -4 -62 -7 -137
-6 l-136 1 6 86 c14 184 88 485 157 638 55 125 196 378 219 393 4 3 12 15 19
28 31 58 191 236 327 363 155 145 413 300 641 387 168 64 440 123 598 130 l65
3 0 -135z m285 123 c28 -4 68 -10 90 -13 22 -3 72 -13 110 -21 39 -9 81 -18
94 -21 126 -26 401 -141 586 -246 58 -33 251 -178 315 -237 30 -27 60 -54 65
-59 6 -5 36 -38 69 -73 163 -179 338 -461 408 -658 27 -78 68 -211 74 -241 3
-14 10 -43 16 -65 5 -22 12 -51 14 -65 19 -108 24 -142 29 -195 4 -33 8 -75 9
-92 l3 -33 -139 0 -138 0 -1 38 c0 20 -2 46 -4 57 -3 11 -7 40 -10 65 -20 168
-87 399 -160 555 -137 290 -395 577 -678 754 -236 149 -561 262 -823 287 -38
3 -72 8 -75 10 -8 4 -9 244 -2 257 5 9 78 7 148 -4z m135 -564 c50 -6 146 -33
195 -53 171 -73 304 -163 443 -300 113 -111 173 -184 234 -287 64 -109 119
-238 144 -340 4 -16 8 -32 9 -35 1 -5 11 -57 20 -100 8 -40 18 -179 18 -260
l1 -75 -142 -3 -142 -3 0 78 c-1 129 -9 232 -25 318 -34 183 -130 413 -244
585 -74 111 -243 281 -351 351 -82 54 -207 119 -228 119 -6 0 -13 4 -17 9 -3
6 2 8 12 7 10 -2 43 -7 73 -11z m-412 -168 l-3 -100 -70 -17 c-114 -28 -262
-97 -313 -147 -7 -7 -17 -13 -20 -13 -17 0 -151 -140 -188 -195 -43 -64 -87
-153 -98 -196 -4 -20 -17 -30 -53 -44 -68 -26 -142 -77 -201 -139 -54 -57
-132 -172 -149 -221 -6 -16 -14 -39 -19 -50 -104 -279 -28 -652 193 -943 46
-62 241 -252 258 -252 3 0 25 -15 49 -33 81 -63 302 -160 411 -182 61 -12 141
-25 173 -27 l32 -2 0 -99 0 -99 -67 5 c-72 7 -151 20 -217 38 -23 6 -48 12
-56 14 -89 18 -283 110 -402 191 -146 99 -216 163 -320 294 -106 133 -224 361
-243 471 -3 18 -8 35 -10 39 -25 40 -39 317 -21 434 20 135 98 324 180 434 25
34 46 64 46 66 0 8 -31 36 -41 36 -15 0 -70 -62 -110 -125 -21 -33 -42 -64
-47 -70 -4 -5 -25 -48 -46 -95 -34 -78 -37 -81 -31 -40 3 25 9 65 12 90 16
133 144 389 260 520 284 321 642 516 1028 559 33 4 66 5 73 3 9 -3 12 -30 10
-105z m274 84 c149 -38 296 -123 377 -218 22 -26 39 -49 37 -51 -2 -1 -37 10
-78 27 -133 53 -244 73 -420 75 l-68 1 0 93 0 92 38 0 c22 0 73 -9 114 -19z
m-92 -516 c112 -15 267 -77 369 -148 69 -47 171 -154 222 -232 79 -120 135
-290 142 -425 l2 -45 -106 -3 -106 -3 -12 77 c-43 263 -201 454 -441 534 -84
28 -229 35 -324 15 -186 -39 -344 -164 -434 -342 -27 -53 -73 -192 -70 -212 0
-3 0 -21 -1 -38 l-1 -33 -109 0 -109 0 4 48 c23 264 146 489 355 649 111 84
244 139 389 160 19 3 36 6 37 7 5 5 140 -2 193 -9z m-30 -466 c155 -31 298
-167 326 -310 12 -61 10 -153 -4 -214 -60 -266 -353 -405 -598 -283 -139 69
-229 204 -237 358 -3 49 0 77 18 158 20 86 132 223 212 258 89 39 191 51 283
33z m-730 -516 c4 -4 12 -33 19 -64 37 -176 176 -350 346 -435 39 -19 79 -36
90 -39 11 -2 38 -9 60 -15 92 -23 269 -3 378 43 102 44 237 162 296 261 39 65
82 178 83 219 1 36 8 39 86 39 124 -1 143 -2 138 -11 -3 -4 -8 -27 -11 -50 -7
-56 -48 -178 -84 -249 -59 -117 -182 -256 -295 -332 -32 -22 -63 -40 -67 -40
-5 0 -9 -7 -9 -16 0 -40 197 12 318 84 103 62 163 115 238 214 26 35 51 65 54
68 19 17 91 187 107 251 l18 77 138 0 138 0 -6 -31 c-4 -18 -12 -50 -18 -72
-5 -22 -11 -45 -12 -50 -2 -6 -17 -46 -36 -90 -101 -246 -289 -450 -524 -567
-228 -115 -525 -144 -787 -77 -191 48 -354 124 -488 228 -45 35 -162 149 -190
186 -86 112 -175 318 -186 430 l-5 51 102 -3 c56 -1 105 -6 109 -10z m-1189
-33 c1 -8 3 -33 5 -55 11 -131 60 -368 94 -450 4 -11 14 -36 21 -55 85 -237
284 -522 496 -710 72 -64 83 -72 159 -125 38 -26 71 -50 74 -53 3 -4 10 -8 17
-9 6 -1 28 -14 50 -28 58 -40 227 -119 328 -153 162 -55 348 -91 498 -96 15 0
17 -14 17 -137 l0 -137 -82 3 c-82 4 -139 10 -188 20 -14 3 -38 8 -55 11 -73
12 -207 49 -309 85 -288 103 -557 276 -786 508 -173 174 -303 357 -402 567
-23 49 -43 91 -43 94 -1 3 -7 19 -15 35 -15 36 -70 193 -76 218 -50 209 -85
464 -65 476 5 3 66 6 135 6 105 0 126 -3 127 -15z m3905 10 c17 0 21 -5 18
-27 -11 -101 -16 -142 -20 -168 -3 -16 -7 -39 -9 -50 -36 -234 -113 -465 -221
-670 -45 -86 -141 -240 -167 -267 -7 -7 -25 -31 -42 -53 -115 -155 -312 -329
-517 -458 -96 -60 -295 -161 -338 -171 -3 -1 -14 -7 -25 -13 -11 -6 -54 -21
-95 -33 -41 -12 -86 -26 -100 -31 -36 -12 -187 -46 -240 -54 -110 -17 -250
-26 -251 -17 -4 25 -4 254 1 260 3 4 14 8 25 9 11 1 51 4 89 8 128 11 356 70
505 131 145 60 344 177 459 271 157 128 337 342 436 516 80 141 163 354 182
467 3 14 7 33 10 42 3 10 7 30 10 45 3 16 7 35 9 43 2 8 7 42 11 75 4 33 8 69
10 80 1 11 3 31 3 45 l1 26 118 -3 c64 -1 127 -2 138 -3z m-701 -382 c-29 -90
-112 -249 -173 -330 -149 -199 -347 -361 -567 -463 -82 -38 -197 -82 -235 -90
-8 -2 -42 -10 -75 -18 -72 -18 -120 -26 -202 -32 l-63 -5 0 100 0 100 38 1
c40 1 54 2 152 21 36 7 67 13 70 13 132 23 365 121 545 228 135 81 157 98 256
196 92 92 162 179 225 278 21 34 41 60 43 58 1 -2 -5 -28 -14 -57z m-2915
-228 c0 -5 -5 -10 -11 -10 -5 0 -7 5 -4 10 3 6 8 10 11 10 2 0 4 -4 4 -10z"/>
<path d="M2450 2764 c-194 -57 -219 -320 -39 -413 28 -15 55 -19 111 -18 64 2
78 6 113 32 22 17 45 37 52 45 81 100 53 262 -58 332 -23 14 -50 22 -119 33
-8 1 -35 -4 -60 -11z"/>
</g>
</svg>
